:SAMPLES-PER-SECOND 30
:FULLY-SPECIFIED
:DEGREES
188
root  -5.98044 34.1818 -31.4527 -165.225 64.2485 -169.788
RightUpLeg  -16.7126 13.2642 1.38044
RightLeg  -0.153451 27.4955 -1.75932
RightFoot  17.361 -1.32297 9.02019
RightToes  -57.7876 -0.376367 -0.393725
Spine  -1.83469 -3.11504 0.0144987
Spine1  -3.47973 -5.77376 0.94186
HEad  -74.1701 -24.7956 12.2788
LeftShoulder1  -1.94126e-019 -3.10601e-018 -2.51263e-017
LeftArm  14.9082 -32.2646 -91.5314
LeftForeArm  46.6075 -72.9946 -33.4561
LeftHand  -0.572257 -1.92379 9.27079
RightShoulder  -4.96962e-017 0 -2.36833e-017
RightArm  -6.56873 -30.0332 71.9449
RightForeArm  67.0437 75.8237 37.6848
RightHand  -0.0598998 -2.81798 -2.06597
LeftUpLeg  -5.39938 17.9573 3.15016
LeftLeg  24.161 23.424 8.44156
LeftFoot  -11.1938 -0.500358 -4.94097
LeftToes  -4.23933 2.25955e-006 -3.67304e-008
189
root  -6.09614 34.1676 -31.5322 -165.35 63.7796 -169.935
RightUpLeg  -16.6568 12.9162 1.15226
RightLeg  -0.479524 27.3739 -1.90279
RightFoot  17.4583 -1.33116 9.02528
RightToes  -57.8617 -0.374732 -0.3927
Spine  -1.82618 -3.12561 0.010796
Spine1  -3.47568 -5.8075 0.936232
HEad  -74.0487 -25.5129 11.7125
LeftShoulder1  -1.94126e-019 -3.10601e-018 -2.51263e-017
LeftArm  16.5414 -31.8132 -92.8507
LeftForeArm  59.3869 -76.4868 -43.8955
LeftHand  -0.874474 -3.54022 11.6036
RightShoulder  -4.96962e-017 0 -2.36833e-017
RightArm  -7.4129 -31.0991 71.3791
RightForeArm  66.6974 75.8295 37.797
RightHand  -0.0568635 -3.10189 -2.09405
LeftUpLeg  -5.75494 18.2108 3.03467
LeftLeg  24.4402 22.727 8.32768
LeftFoot  -11.5342 -0.514471 -4.92905
LeftToes  -3.89864 2.25955e-006 -3.67304e-008
190
root  -6.17387 34.1678 -31.6415 -165.501 62.9112 -170.015
RightUpLeg  -16.3268 12.1228 1.07303
RightLeg  -0.918196 27.3242 -2.10202
RightFoot  17.512 -1.33805 9.0431
RightToes  -57.7109 -0.372653 -0.391463
Spine  -1.94622 -3.18705 0.0561531
Spine1  -3.71455 -5.91129 1.05074
HEad  -72.1857 -26.2295 9.91931
LeftShoulder1  -1.94126e-019 -3.10601e-018 -2.51263e-017
LeftArm  19.562 -32.9241 -94.4119
LeftForeArm  55.6232 -74.8177 -37.2552
LeftHand  -1.40166 -4.1336 17.2598
RightShoulder  -4.96962e-017 0 -2.36833e-017
RightArm  -7.90912 -31.8587 70.7906
RightForeArm  65.0791 75.3203 36.2015
RightHand  -0.0538757 -3.09332 -1.93227
LeftUpLeg  -5.93815 17.9151 3.0081
LeftLeg  24.5879 22.207 8.21184
LeftFoot  -11.7899 -0.524112 -4.91124
LeftToes  -3.74835 2.25955e-006 -3.67304e-008
191
root  -6.23889 34.172 -31.745 -165.814 62.222 -170.127
RightUpLeg  -15.9569 11.5567 0.979492
RightLeg  -1.1483 27.2242 -2.20087
RightFoot  17.5277 -1.33647 9.02552
RightToes  -57.5597 -0.370255 -0.390114
Spine  -2.09484 -3.11653 0.0988273
Spine1  -3.98686 -5.72392 1.16608
HEad  -69.7164 -26.7777 7.87247
LeftShoulder1  -1.94126e-019 -3.10601e-018 -2.51263e-017
LeftArm  22.7071 -34.9195 -96.5999
LeftForeArm  47.3385 -67.4245 -22.4208
LeftHand  -1.44752 -2.75412 20.6968
RightShoulder  -4.96962e-017 0 -2.36833e-017
RightArm  -8.15305 -32.1906 70.3082
RightForeArm  63.336 74.6146 34.149
RightHand  -0.0489399 -3.17086 -1.71294
LeftUpLeg  -5.89763 17.5438 2.96553
LeftLeg  24.6536 21.9301 8.14335
LeftFoot  -11.8416 -0.525867 -4.8607
LeftToes  -3.64775 2.25955e-006 -3.67304e-008
192
root  -6.28766 34.1778 -31.8453 -166.268 61.5858 -170.236
RightUpLeg  -15.5401 11.264 0.880459
RightLeg  -1.1013 26.9107 -2.15623
RightFoot  17.476 -1.31126 8.89031
RightToes  -57.2113 -0.367664 -0.388755
Spine  -2.184 -3.18603 0.199054
Spine1  -4.13571 -5.80725 1.39126
HEad  -67.3124 -26.4929 5.63184
LeftShoulder1  -1.94126e-019 -3.10601e-018 -2.51263e-017
LeftArm  23.3729 -36.8496 -98.5287
LeftForeArm  39.9453 -57.3257 -14.1457
LeftHand  -1.18798 -3.02896 16.544
RightShoulder  -4.96962e-017 0 -2.36833e-017
RightArm  -7.62968 -31.8037 69.8598
RightForeArm  62.79 74.0579 32.5369
RightHand  -0.0479606 -3.18214 -1.66547
LeftUpLeg  -5.66118 16.831 2.91742
LeftLeg  24.7121 22.0224 8.20013
LeftFoot  -11.8013 -0.520208 -4.86582
LeftToes  -3.61638 2.25955e-006 -3.67304e-008
193
root  -6.31496 34.1891 -31.9398 -166.651 61.3035 -170.195
RightUpLeg  -15.1999 11.3724 0.825447
RightLeg  -0.756893 26.5767 -1.97667
RightFoot  17.3943 -1.27858 8.72067
RightToes  -56.8448 -0.365003 -0.387484
Spine  -2.25499 -3.35049 0.346532
Spine1  -4.27205 -6.11787 1.70532
HEad  -65.6627 -25.3495 3.78385
LeftShoulder1  -1.94126e-019 -3.10601e-018 -2.51263e-017
LeftArm  21.9173 -37.2393 -98.2282
LeftForeArm  29.5245 -51.0609 -11.6862
LeftHand  -0.495662 -0.942895 9.22181
RightShoulder  -4.96962e-017 0 -2.36833e-017
RightArm  -6.85979 -31.0277 69.7792
RightForeArm  62.9108 73.6225 31.2713
RightHand  -0.0552519 -2.90933 -1.8974
LeftUpLeg  -5.20585 16.4738 2.93344
LeftLeg  24.6233 22.1338 8.20143
LeftFoot  -11.745 -0.51772 -4.86871
LeftToes  -3.47361 2.25955e-006 -3.67304e-008
194
root  -6.33283 34.1941 -32.0284 -166.916 61.2293 -170.148
RightUpLeg  -15.0674 11.7562 0.729456
RightLeg  -0.221842 26.1572 -1.71094
RightFoot  17.2183 -1.22755 8.47455
RightToes  -56.3642 -0.360549 -0.386403
Spine  -2.20442 -3.47692 0.540399
Spine1  -4.16419 -6.35801 2.09296
HEad  -65.4442 -23.8323 2.74715
LeftShoulder1  -1.94126e-019 -3.10601e-018 -2.51263e-017
LeftArm  19.2897 -35.2701 -95.3208
LeftForeArm  24.515 -51.2306 -12.1732
LeftHand  -0.526589 -0.823301 9.96754
RightShoulder  -4.96962e-017 0 -2.36833e-017
RightArm  -6.61092 -30.2556 69.9592
RightForeArm  63.6734 73.7041 31.3374
RightHand  -0.0605749 -2.69481 -2.02735
LeftUpLeg  -4.81683 16.3575 2.91559
LeftLeg  24.5353 22.2115 8.19108
LeftFoot  -11.77 -0.521876 -4.8982
LeftToes  -3.13087 2.25955e-006 -3.67304e-008
195
root  -6.35204 34.1946 -32.1182 -166.932 61.2646 -170.083
RightUpLeg  -15.1629 12.1035 0.605994
RightLeg  0.258973 25.8479 -1.48185
RightFoot  17.0358 -1.18352 8.27187
RightToes  -55.6948 -0.354365 -0.385612
Spine  -2.10369 -3.34089 0.693732
Spine1  -3.94744 -6.07925 2.37599
HEad  -66.7303 -22.7028 3.02029
LeftShoulder1  -1.94126e-019 -3.10601e-018 -2.51263e-017
LeftArm  18.1688 -32.3653 -92.6458
LeftForeArm  30.2663 -56.593 -14.5997
LeftHand  -0.574721 0.347634 13.2782
RightShoulder  -4.96962e-017 0 -2.36833e-017
RightArm  -7.6399 -30.2277 70.5777
RightForeArm  64.461 74.1135 32.3345
RightHand  -0.0649493 -2.67049 -2.20581
LeftUpLeg  -4.62393 16.332 2.82222
LeftLeg  24.3946 22.2919 8.15904
LeftFoot  -11.8321 -0.529178 -4.94182
LeftToes  -2.87442 2.25955e-006 -3.67304e-008
